<?xml version="1.0" standalone="no"?>
<!DOCTYPE svg PUBLIC "-//W3C//DTD SVG 20010904//EN"
 "http://www.w3.org/TR/2001/REC-SVG-20010904/DTD/svg10.dtd">
<svg version="1.0" xmlns="http://www.w3.org/2000/svg"
 width="128.000000pt" height="128.000000pt" viewBox="0 0 128.000000 128.000000"
 preserveAspectRatio="xMidYMid meet">

<g transform="translate(0.000000,128.000000) scale(0.100000,-0.100000)"
fill="#000000" stroke="none">
<path d="M1130 1265 c-7 -9 -24 -14 -39 -13 -22 3 -26 -1 -26 -25 1 -23 -3
-27 -25 -25 -21 3 -25 -1 -25 -24 0 -14 -3 -30 -7 -34 -5 -4 -8 -15 -8 -23 0
-9 -49 -65 -109 -125 l-108 -108 -44 31 c-53 37 -123 56 -169 47 -65 -12 -95
-39 -133 -120 -20 -41 -45 -79 -55 -85 -10 -6 -52 -18 -93 -27 -185 -42 -279
-133 -279 -271 0 -93 50 -185 160 -294 111 -110 201 -159 293 -159 139 0 230
95 272 282 9 42 23 84 30 94 7 10 46 34 86 54 59 28 78 43 96 75 38 67 25 156
-32 231 l-28 36 109 109 c60 60 116 109 125 109 8 0 19 3 23 8 4 4 20 7 34 7
23 0 27 4 24 25 -2 22 2 26 25 25 24 0 28 4 25 26 -1 15 4 32 13 39 26 22 17
49 -35 100 -51 52 -78 61 -100 35z m40 -59 c0 -7 -26 -37 -57 -67 -48 -45 -58
-51 -61 -35 -3 12 13 36 44 67 48 49 74 61 74 35z m50 -49 c0 -22 -96 -109
-116 -105 -16 3 -10 13 35 61 52 55 81 71 81 44z m-545 -278 c22 -12 44 -25
50 -30 12 -12 -153 -179 -178 -179 -54 0 -102 -54 -100 -114 2 -64 44 -107
107 -109 61 -2 116 45 116 100 0 10 38 56 85 103 82 81 85 84 100 65 44 -55
57 -133 30 -172 -8 -12 -48 -37 -88 -57 -85 -41 -99 -60 -127 -180 -23 -101
-36 -129 -82 -175 -94 -97 -208 -71 -365 81 -160 157 -190 280 -92 376 46 46
74 59 175 82 120 28 139 42 180 127 20 40 45 80 57 88 30 21 85 19 132 -6z"/>
<path d="M250 455 l-24 -26 102 -102 102 -102 25 25 25 25 -103 103 -103 103
-24 -26z"/>
</g>
</svg>
